<?xml version="1.0" encoding="UTF-8" standalone="no"?>
<!DOCTYPE svg PUBLIC "-//W3C//DTD SVG 1.1//EN" "http://www.w3.org/Graphics/SVG/1.1/DTD/svg11.dtd">
<svg width="100%" height="100%" viewBox="0 0 16 16" version="1.1" xmlns="http://www.w3.org/2000/svg" xmlns:xlink="http://www.w3.org/1999/xlink" xml:space="preserve" xmlns:serif="http://www.serif.com/" style="fill-rule:evenodd;clip-rule:evenodd;stroke-linejoin:round;stroke-miterlimit:2;">
    <path d="M9.771,15.137L2.553,15.137L2.553,15.378L0.512,15.378L0.512,12.753L0.83,12.753L0.83,3.475L0.651,3.475L0.651,0.489L3.637,0.489L3.637,0.706L13.123,0.706L13.123,0.246L16.519,0.246L16.519,3.642L15.177,3.642L15.177,10.545C15.353,10.769 15.303,11.014 15.411,11.274C15.557,11.625 15.637,12.003 15.637,12.399C15.637,14.196 13.991,15.656 11.963,15.656C11.142,15.656 10.383,15.541 9.771,15.137ZM12.858,7.915L12.858,3.178L3.637,3.178L3.637,3.475L3.191,3.475L3.191,12.776L8.354,12.776C8.312,12.577 8.289,12.608 8.289,12.399C8.289,11.316 8.887,10.356 9.804,9.764L12.012,6.545L12.858,7.915Z" style="fill:rgb(235,235,235);fill-opacity:0;"/>
    <clipPath id="_clip1">
        <path d="M9.771,15.137L2.553,15.137L2.553,15.378L0.512,15.378L0.512,12.753L0.83,12.753L0.83,3.475L0.651,3.475L0.651,0.489L3.637,0.489L3.637,0.706L13.123,0.706L13.123,0.246L16.519,0.246L16.519,3.642L15.177,3.642L15.177,10.545C15.353,10.769 15.303,11.014 15.411,11.274C15.557,11.625 15.637,12.003 15.637,12.399C15.637,14.196 13.991,15.656 11.963,15.656C11.142,15.656 10.383,15.541 9.771,15.137ZM12.858,7.915L12.858,3.178L3.637,3.178L3.637,3.475L3.191,3.475L3.191,12.776L8.354,12.776C8.312,12.577 8.289,12.608 8.289,12.399C8.289,11.316 8.887,10.356 9.804,9.764L12.012,6.545L12.858,7.915Z"/>
    </clipPath>
    <g clip-path="url(#_clip1)">
        <path d="M8.1,15C7.597,14.43 7.246,13.742 7.08,13L3,13L3,3L13,3L13,5.232C13.316,5.41 13.578,5.67 13.76,5.984L15,7.75L15,2C15,1.451 14.549,1 14,1L2,1C1.451,1 1,1.451 1,2L1,14C1,14.549 1.451,15 2,15L8.1,15ZM8,5L8,6L6,6L6,7L5,7L5,8L4,8L4,9L8,9L10.24,6C10.422,5.686 10.684,5.426 11,5.248L11,5L10,5L10,4L9,4L9,5L8,5ZM12,7C11.571,7.746 11.054,8.387 10.571,9C10,9.69 9.505,10.342 9.231,11C9.093,11.326 9,11.656 9,12C9,12.344 9.072,12.686 9.184,13C9.597,14.163 10.696,15 12,15C13.304,15 14.402,14.163 14.816,13C14.928,12.686 15,12.344 15,12C15,11.656 14.906,11.326 14.769,11C14.494,10.342 13.999,9.69 13.429,9C12.945,8.387 12.429,7.746 11.999,7L12,7Z" style="fill-rule:nonzero;"/>
        <clipPath id="_clip2">
            <path d="M8.1,15C7.597,14.43 7.246,13.742 7.08,13L3,13L3,3L13,3L13,5.232C13.316,5.41 13.578,5.67 13.76,5.984L15,7.75L15,2C15,1.451 14.549,1 14,1L2,1C1.451,1 1,1.451 1,2L1,14C1,14.549 1.451,15 2,15L8.1,15ZM8,5L8,6L6,6L6,7L5,7L5,8L4,8L4,9L8,9L10.24,6C10.422,5.686 10.684,5.426 11,5.248L11,5L10,5L10,4L9,4L9,5L8,5ZM12,7C11.571,7.746 11.054,8.387 10.571,9C10,9.69 9.505,10.342 9.231,11C9.093,11.326 9,11.656 9,12C9,12.344 9.072,12.686 9.184,13C9.597,14.163 10.696,15 12,15C13.304,15 14.402,14.163 14.816,13C14.928,12.686 15,12.344 15,12C15,11.656 14.906,11.326 14.769,11C14.494,10.342 13.999,9.69 13.429,9C12.945,8.387 12.429,7.746 11.999,7L12,7Z" clip-rule="nonzero"/>
        </clipPath>
        <g clip-path="url(#_clip2)">
            <g>
                <g transform="matrix(1,0,0,1.14371,0,11.8707)">
                    <rect x="0.769" y="0.706" width="14.639" height="2.319" style="fill:rgb(255,69,150);"/>
                </g>
                <g transform="matrix(1,0,0,0.996076,8.88178e-16,9.98888)">
                    <rect x="0.769" y="0.706" width="14.639" height="2.319" style="fill:rgb(128,69,255);"/>
                </g>
                <g transform="matrix(1,0,0,1,0,8)">
                    <rect x="0.769" y="0.706" width="14.639" height="2.319" style="fill:rgb(69,215,255);"/>
                </g>
                <g transform="matrix(1,0,0,1,0,6.01389)">
                    <rect x="0.769" y="0.706" width="14.639" height="2.319" style="fill:rgb(69,255,162);"/>
                </g>
                <g transform="matrix(1,0,0,1,0,4)">
                    <rect x="0.769" y="0.706" width="14.639" height="2.319" style="fill:rgb(128,255,69);"/>
                </g>
                <g transform="matrix(1,0,0,1,0,1.98611)">
                    <rect x="0.769" y="0.706" width="14.639" height="2.319" style="fill:rgb(255,227,69);"/>
                </g>
                <g transform="matrix(1,0,0,1,0.0755555,-0.0311111)">
                    <rect x="0.769" y="0.706" width="14.639" height="2.319" style="fill:rgb(255,69,69);"/>
                </g>
            </g>
        </g>
    </g>
    <g transform="matrix(0.62591,0,0,0.62591,2.99272,2.99272)">
        <path d="M8,6C9.104,6 10,6.896 10,8C10,9.104 9.104,10 8,10C6.896,10 6,9.104 6,8C6,6.896 6.896,6 8,6ZM9,1L14,1C14.549,1 15,1.451 15,2L15,7C15,7.549 14.549,8 14,8C13.451,8 13,7.549 13,7L13,4.414L11.707,5.707L10.293,4.293L11.586,3L9,3C8.451,3 8,2.549 8,2C8,1.451 8.451,1 9,1ZM3,9L3,11.586L4.293,10.293L5.707,11.707L4.414,13L7,13C7.549,13 8,13.451 8,14C8,14.549 7.549,15 7,15L2,15C1.451,15 1,14.549 1,14L1,9C1,8.451 1.451,8 2,8C2.549,8 3,8.451 3,9Z" style="fill:rgb(224,224,224);fill-opacity:0;"/>
        <clipPath id="_clip3">
            <path d="M8,6C9.104,6 10,6.896 10,8C10,9.104 9.104,10 8,10C6.896,10 6,9.104 6,8C6,6.896 6.896,6 8,6ZM9,1L14,1C14.549,1 15,1.451 15,2L15,7C15,7.549 14.549,8 14,8C13.451,8 13,7.549 13,7L13,4.414L11.707,5.707L10.293,4.293L11.586,3L9,3C8.451,3 8,2.549 8,2C8,1.451 8.451,1 9,1ZM3,9L3,11.586L4.293,10.293L5.707,11.707L4.414,13L7,13C7.549,13 8,13.451 8,14C8,14.549 7.549,15 7,15L2,15C1.451,15 1,14.549 1,14L1,9C1,8.451 1.451,8 2,8C2.549,8 3,8.451 3,9Z"/>
        </clipPath>
        <g clip-path="url(#_clip3)">
            <g transform="matrix(1.59767,0,0,1.59767,-4.78139,-4.78139)">
                <path d="M9.015,15.219L8.002,11.747L11.865,6.148L15.048,8.738L15.41,7.797L15.453,0.708L0.581,0.694L0.624,15.205L9.015,15.219Z" style="fill-opacity:0;"/>
                <clipPath id="_clip4">
                    <path d="M9.015,15.219L8.002,11.747L11.865,6.148L15.048,8.738L15.41,7.797L15.453,0.708L0.581,0.694L0.624,15.205L9.015,15.219Z"/>
                </clipPath>
                <g clip-path="url(#_clip4)">
                    <path d="M1,14C1,14.549 1.451,15 2,15L8.037,15C7.587,14.409 7.273,13.726 7.117,13C7.043,12.672 7.003,12.337 7,12C7,11.644 7.045,11.313 7.117,11C7.297,10.216 7.663,9.565 8.055,9C8.195,8.797 8.34,8.598 8.479,8.416C8.865,7.911 9.242,7.448 9.582,7C9.839,6.662 10.077,6.33 10.268,6C10.625,5.382 11.287,4.999 12,4.999C12.714,4.999 13.376,5.382 13.733,6C13.921,6.327 14.161,6.66 14.418,7C14.604,7.246 14.798,7.494 15,7.75L15,2C15,1.451 14.549,1 14,1L2,1C1.451,1 1,1.451 1,2L1,14ZM12,7C11.571,7.746 11.054,8.387 10.571,9C10,9.69 9.505,10.342 9.231,11C9.093,11.326 9,11.656 9,12C9,12.344 9.072,12.686 9.184,13C9.597,14.163 10.696,15 12,15C13.304,15 14.402,14.163 14.816,13C14.928,12.686 15,12.344 15,12C15,11.656 14.906,11.326 14.769,11C14.494,10.342 13.999,9.69 13.429,9C12.945,8.387 12.429,7.746 11.999,7L12,7Z" style="fill-rule:nonzero;"/>
                    <clipPath id="_clip5">
                        <path d="M1,14C1,14.549 1.451,15 2,15L8.037,15C7.587,14.409 7.273,13.726 7.117,13C7.043,12.672 7.003,12.337 7,12C7,11.644 7.045,11.313 7.117,11C7.297,10.216 7.663,9.565 8.055,9C8.195,8.797 8.34,8.598 8.479,8.416C8.865,7.911 9.242,7.448 9.582,7C9.839,6.662 10.077,6.33 10.268,6C10.625,5.382 11.287,4.999 12,4.999C12.714,4.999 13.376,5.382 13.733,6C13.921,6.327 14.161,6.66 14.418,7C14.604,7.246 14.798,7.494 15,7.75L15,2C15,1.451 14.549,1 14,1L2,1C1.451,1 1,1.451 1,2L1,14ZM12,7C11.571,7.746 11.054,8.387 10.571,9C10,9.69 9.505,10.342 9.231,11C9.093,11.326 9,11.656 9,12C9,12.344 9.072,12.686 9.184,13C9.597,14.163 10.696,15 12,15C13.304,15 14.402,14.163 14.816,13C14.928,12.686 15,12.344 15,12C15,11.656 14.906,11.326 14.769,11C14.494,10.342 13.999,9.69 13.429,9C12.945,8.387 12.429,7.746 11.999,7L12,7Z" clip-rule="nonzero"/>
                    </clipPath>
                    <g clip-path="url(#_clip5)">
                        <g>
                            <g transform="matrix(1,0,0,1.14371,0,11.8707)">
                                <rect x="0.769" y="0.706" width="14.639" height="2.319" style="fill:rgb(255,69,150);"/>
                            </g>
                            <g transform="matrix(1,0,0,0.996076,8.88178e-16,9.98888)">
                                <rect x="0.769" y="0.706" width="14.639" height="2.319" style="fill:rgb(128,69,255);"/>
                            </g>
                            <g transform="matrix(1,0,0,1,0,8)">
                                <rect x="0.769" y="0.706" width="14.639" height="2.319" style="fill:rgb(69,215,255);"/>
                            </g>
                            <g transform="matrix(1,0,0,1,0,6.01389)">
                                <rect x="0.769" y="0.706" width="14.639" height="2.319" style="fill:rgb(69,255,162);"/>
                            </g>
                            <g transform="matrix(1,0,0,1,0,4)">
                                <rect x="0.769" y="0.706" width="14.639" height="2.319" style="fill:rgb(128,255,69);"/>
                            </g>
                            <g transform="matrix(1,0,0,1,0,1.98611)">
                                <rect x="0.769" y="0.706" width="14.639" height="2.319" style="fill:rgb(255,227,69);"/>
                            </g>
                            <g transform="matrix(1,0,0,1,0.0755555,-0.0311111)">
                                <rect x="0.769" y="0.706" width="14.639" height="2.319" style="fill:rgb(255,69,69);"/>
                            </g>
                        </g>
                    </g>
                </g>
            </g>
        </g>
    </g>
</svg>
