<?xml version="1.0" encoding="UTF-8" standalone="no"?>
<!DOCTYPE svg PUBLIC "-//W3C//DTD SVG 1.1//EN" "http://www.w3.org/Graphics/SVG/1.1/DTD/svg11.dtd">
<svg width="100%" height="100%" viewBox="0 0 16 16" version="1.1" xmlns="http://www.w3.org/2000/svg" xmlns:xlink="http://www.w3.org/1999/xlink" xml:space="preserve" xmlns:serif="http://www.serif.com/" style="fill-rule:evenodd;clip-rule:evenodd;stroke-linecap:round;stroke-linejoin:round;stroke-miterlimit:1.5;">
    <g transform="matrix(1.35912,0,0,3.21695,2.39424,-7.00415)">
        <path d="M3.751,6.042L3.751,6.053L0.609,6.053L0.609,0.931L3.751,0.931L3.751,4.833L13.37,4.833L13.37,6.042L3.751,6.042Z" style="fill-opacity:0;"/>
        <clipPath id="_clip1">
            <path d="M3.751,6.042L3.751,6.053L0.609,6.053L0.609,0.931L3.751,0.931L3.751,4.833L13.37,4.833L13.37,6.042L3.751,6.042Z"/>
        </clipPath>
        <g clip-path="url(#_clip1)">
            <g transform="matrix(1.0176,0,0,0.429922,-2.72234,0.676796)">
                <path d="M11.069,5.449L11.069,10.78C11.069,11.06 10.841,11.287 10.561,11.287L5.231,11.287C4.951,11.287 4.723,11.06 4.723,10.78L4.723,5.449C4.723,5.169 4.951,4.942 5.231,4.942L10.561,4.942C10.841,4.942 11.069,5.169 11.069,5.449Z" style="fill:rgb(235,235,235);fill-opacity:0;stroke:rgb(142,239,151);stroke-width:1.45px;"/>
            </g>
        </g>
    </g>
    <g transform="matrix(1.35912,0,0,3.21695,-1.50332,-3.10659)">
        <path d="M3.751,6.042L3.751,6.053L0.609,6.053L0.609,0.931L3.751,0.931L3.751,4.833L13.37,4.833L13.37,6.042L3.751,6.042Z" style="fill-opacity:0;"/>
        <clipPath id="_clip2">
            <path d="M3.751,6.042L3.751,6.053L0.609,6.053L0.609,0.931L3.751,0.931L3.751,4.833L13.37,4.833L13.37,6.042L3.751,6.042Z"/>
        </clipPath>
        <g clip-path="url(#_clip2)">
            <g transform="matrix(1.24709,0,0,0.525517,-3.30172,-0.615387)">
                <path d="M11.069,5.449L11.069,10.78C11.069,11.06 10.842,11.287 10.562,11.287L5.23,11.287C4.95,11.287 4.723,11.06 4.723,10.78L4.723,5.449C4.723,5.169 4.95,4.942 5.23,4.942L10.562,4.942C10.842,4.942 11.069,5.169 11.069,5.449Z" style="fill:rgb(235,235,235);fill-opacity:0;stroke:rgb(142,239,151);stroke-width:1.18px;"/>
            </g>
        </g>
    </g>
    <g transform="matrix(0.897327,0,0,0.895023,4.43855,-2.7833)">
        <path d="M11.069,6.338L11.069,9.891C11.069,10.662 10.445,11.287 9.676,11.287L6.116,11.287C5.347,11.287 4.723,10.662 4.723,9.891L4.723,6.338C4.723,5.567 5.347,4.942 6.116,4.942L9.676,4.942C10.445,4.942 11.069,5.567 11.069,6.338Z" style="fill:rgb(235,235,235);fill-opacity:0;stroke:rgb(142,239,151);stroke-width:1.39px;"/>
    </g>
</svg>
